#!OML:ASF H:\Terrain\Patient Classification 1\Takeo\Monday\TakeoMonday.ASF
:FULLY-SPECIFIED
:DEGREES
2026
root 9.911 17.914 -0.898557 -7.35785 21.9345 -7.34223
lowerback 8.82927 -0.482194 1.21469
upperback 1.86581 -0.565019 -1.39199
thorax -3.04099 -0.289066 -2.06086
lowerneck -11.3262 -6.2736 -6.28941
upperneck -11.6473 -7.06289 9.61422
head -1.19454 -3.30722 4.07841
rclavicle 2.93207e-014 -9.54166e-015
rhumerus -32.9837 34.9091 -87.7232
rradius 98.7767
rwrist -4.23869
rhand -35.4191 36.1819
rfingers 7.12502
rthumb -8.54925 6.37493
lclavicle 2.93207e-014 -9.54166e-015
lhumerus -31.3822 -1.98636 86.9469
lradius 36.7329
lwrist 28.3513
lhand -28.519 17.0195
lfingers 7.12502
lthumb -1.88717 46.9909
rfemur -3.61258 -5.89312 21.0984
rtibia 16.7914
rfoot -9.38662 -19.3467
rtoes -5.66076
lfemur 0.0159964 -1.70899 -18.2455
ltibia 20.6869
lfoot -16.4874 15.6414
ltoes 8.81166
2027
root 9.91709 17.9236 -0.923087 -7.02078 21.8083 -7.20638
lowerback 8.65552 -0.525172 1.16783
upperback 1.90987 -0.62556 -1.33816
thorax -2.90057 -0.317227 -1.97259
lowerneck -11.6161 -6.18594 -6.2467
upperneck -11.2383 -6.96481 9.55775
head -1.02109 -3.25237 4.03469
rclavicle -3.3694e-014 -4.77083e-015
rhumerus -34.3705 33.3506 -89.091
rradius 96.9882
rwrist -4.49044
rhand -35.3468 36.2206
rfingers 7.12502
rthumb -8.47945 6.41084
lclavicle -3.3694e-014 -4.77083e-015
lhumerus -31.3473 -2.02459 87.0355
lradius 36.8203
lwrist 28.4485
lhand -28.5097 16.8421
lfingers 7.12502
lthumb -1.87818 46.8136
rfemur -3.98531 -5.9465 21.0737
rtibia 17.5219
rfoot -9.66164 -19.3913
rtoes -5.56457
lfemur -0.288275 -1.75161 -18.4429
ltibia 20.581
lfoot -16.6441 15.646
ltoes 9.44712
2028
root 9.92015 17.9334 -0.947819 -6.84633 21.8587 -7.35361
lowerback 8.62658 -0.594955 1.43525
upperback 1.89359 -0.691323 -1.22434
thorax -2.90583 -0.351946 -1.9982
lowerneck -11.7728 -6.15883 -6.31879
upperneck -10.8677 -6.94122 9.48435
head -0.873458 -3.23337 4.00919
rclavicle 1.8487e-014 1.59028e-015
rhumerus -35.5708 31.7319 -90.2639
rradius 95.0953
rwrist -5.01468
rhand -35.2099 36.3537
rfingers 7.12502
rthumb -8.3473 6.53866
lclavicle 1.8487e-014 1.59028e-015
lhumerus -31.3174 -2.29697 87.2043
lradius 36.6904
lwrist 28.4723
lhand -28.5495 17.2374
lfingers 7.12502
lthumb -1.91667 47.2086
rfemur -4.19094 -5.99659 21.3059
rtibia 18.1656
rfoot -10.5429 -19.5605
rtoes -3.47604
lfemur -0.619047 -1.86391 -18.349
ltibia 20.5552
lfoot -16.0091 15.9933
ltoes 7.95487
2029
root 9.9162 17.9394 -0.974829 -6.83363 21.993 -7.8221
lowerback 8.74334 -0.734425 1.94064
upperback 1.84945 -0.822501 -1.00074
thorax -3.0259 -0.422235 -2.03562
lowerneck -11.7409 -6.13735 -6.39115
upperneck -10.6883 -6.9235 9.41314
head -0.820865 -3.22302 3.99517
rclavicle -9.02482e-014 9.54166e-015
rhumerus -36.7114 30.2451 -91.3259
rradius 93.2846
rwrist -5.62435
rhand -35.1525 36.6892
rfingers 7.12502
rthumb -8.29198 6.87191
lclavicle -9.02482e-014 9.54166e-015
lhumerus -31.3309 -2.63778 87.4035
lradius 36.6198
lwrist 28.5041
lhand -28.3911 17.4666
lfingers 7.12502
lthumb -1.76361 47.4391
rfemur -4.46549 -6.23544 21.9098
rtibia 18.9117
rfoot -11.0772 -19.8063
rtoes -1.83555
lfemur -0.939672 -1.97248 -17.8807
ltibia 20.4906
lfoot -14.7417 16.4517
ltoes 4.46756
2030
root 9.91035 17.9424 -0.997167 -6.85329 22.0382 -8.21953
lowerback 8.80981 -0.865239 2.30265
upperback 1.92843 -0.954571 -0.784148
thorax -2.98955 -0.488751 -1.99985
lowerneck -11.788 -6.13444 -6.54327
upperneck -10.5629 -6.90647 9.5332
head -0.761537 -3.20922 4.06334
rclavicle 5.59579e-014 7.95139e-015
rhumerus -37.6232 28.8473 -92.1411
rradius 91.587
rwrist -5.91922
rhand -35.3756 37.0571
rfingers 7.12502
rthumb -8.50728 7.24851
lclavicle 5.59579e-014 7.95139e-015
lhumerus -31.1831 -2.99044 87.6025
lradius 36.4528
lwrist 28.669
lhand -28.2671 17.5035
lfingers 7.12502
lthumb -1.64384 47.4769
rfemur -4.71946 -6.4408 22.5095
rtibia 19.7502
rfoot -11.3012 -20.031
rtoes -2.29157
lfemur -1.11502 -2.17882 -17.4723
ltibia 20.3743
lfoot -14.3338 16.6168
ltoes 3.66079
2031
root 9.90799 17.942 -1.0279 -6.57047 21.1846 -7.82268
lowerback 8.96826 -0.652525 1.98805
upperback 1.9701 -0.697437 -0.778786
thorax -3.01718 -0.35836 -1.84533
lowerneck -11.7327 -6.11082 -6.51477
upperneck -10.4974 -6.88945 9.50306
head -0.75281 -3.2043 4.04814
rclavicle 6.26172e-015 6.36111e-015
rhumerus -38.4051 27.4878 -92.8058
rradius 89.8902
rwrist -5.92206
rhand -35.7161 37.5764
rfingers 7.12502
rthumb -8.83584 7.78138
lclavicle 6.26172e-015 6.36111e-015
lhumerus -31.2331 -3.23452 87.7506
lradius 36.4411
lwrist 28.9403
lhand -28.6783 17.5113
lfingers 7.12502
lthumb -2.041 47.4813
rfemur -5.05744 -6.14257 22.3283
rtibia 20.6789
rfoot -11.5515 -19.7021
rtoes -2.20895
lfemur -1.12073 -1.96098 -17.899
ltibia 20.2494
lfoot -14.8754 17.0188
ltoes 5.64408
2032
root 9.91569 17.9384 -1.04289 -6.2856 21.0953 -7.33196
lowerback 8.87765 -0.719333 1.5893
upperback 2.06359 -0.825889 -0.827881
thorax -2.87149 -0.417157 -1.65805
lowerneck -11.7951 -6.01018 -6.31707
upperneck -10.3591 -6.78918 9.36072
head -0.718256 -3.16024 3.96026
rclavicle 1.0138e-014 -2.54444e-014
rhumerus -39.1788 26.2575 -93.5022
rradius 88.3414
rwrist -5.79121
rhand -35.6482 38.4469
rfingers 7.12502
rthumb -8.77035 8.64917
lclavicle 1.0138e-014 -2.54444e-014
lhumerus -31.2281 -3.2233 87.7964
lradius 36.4637
lwrist 29.1402
lhand -29.3513 17.9647
lfingers 7.12502
lthumb -2.69097 47.9274
rfemur -5.27516 -6.44185 21.9512
rtibia 21.6974
rfoot -11.7816 -19.5646
rtoes -2.44794
lfemur -1.1665 -2.11309 -18.4854
ltibia 20.0751
lfoot -14.6701 17.3074
ltoes 4.98177
2033
root 9.91827 17.9305 -1.05656 -6.11688 20.866 -7.06857
lowerback 8.86762 -0.746693 1.31216
upperback 2.14897 -0.884765 -0.750886
thorax -2.77473 -0.443103 -1.41625
lowerneck -12.008 -5.84859 -6.02959
upperneck -10.0897 -6.62394 9.02968
head -0.631348 -3.08218 3.78571
rclavicle 2.78299e-014 7.95139e-015
rhumerus -39.9986 25.0783 -94.0596
rradius 87.0252
rwrist -5.48867
rhand -35.1469 39.4761
rfingers 7.12502
rthumb -8.28654 9.6586
lclavicle 2.78299e-014 7.95139e-015
lhumerus -31.0267 -2.82222 87.7835
lradius 36.2411
lwrist 28.9481
lhand -29.3617 18.3825
lfingers 7.12502
lthumb -2.701 48.3452
rfemur -5.44124 -6.68252 21.8685
rtibia 22.6508
rfoot -11.6676 -19.3949
rtoes -3.35922
lfemur -1.23872 -2.24095 -18.806
ltibia 19.9952
lfoot -14.4932 17.6213
ltoes 3.57892
2034
root 9.91449 17.9311 -1.07742 -5.88748 20.8267 -6.98813
lowerback 8.83554 -0.804409 1.16799
upperback 2.15725 -0.969638 -0.58628
thorax -2.7462 -0.48411 -1.15581
lowerneck -12.0832 -5.66898 -5.80069
upperneck -9.79498 -6.44018 8.61905
head -0.56104 -2.99628 3.60011
rclavicle 2.62396e-014 -1.19271e-014
rhumerus -40.7741 23.7846 -94.391
rradius 85.805
rwrist -5.32297
rhand -34.9294 39.5524
rfingers 7.12502
rthumb -8.07667 9.72677
lclavicle 2.62396e-014 -1.19271e-014
lhumerus -30.9503 -2.30229 87.8036
lradius 36.1367
lwrist 28.6289
lhand -28.8662 18.3506
lfingers 7.12502
lthumb -2.22248 48.3187
rfemur -5.51188 -6.79486 21.9609
rtibia 23.2608
rfoot -12.253 -19.278
rtoes -0.799303
lfemur -1.65997 -2.37327 -18.8999
ltibia 20.2532
lfoot -14.8225 17.5669
ltoes 3.38545
